<?xml version="1.0" encoding="UTF-8"?>
<!DOCTYPE svg PUBLIC "-//W3C//DTD SVG 1.1//EN" "http://www.w3.org/Graphics/SVG/1.1/DTD/svg11.dtd">
<!-- Creator: CorelDRAW 2021 (64 Bit) -->
<svg xmlns="http://www.w3.org/2000/svg" xml:space="preserve" width="86.6986mm" height="65.024mm" version="1.1" style="shape-rendering:geometricPrecision; text-rendering:geometricPrecision; image-rendering:optimizeQuality; fill-rule:evenodd; clip-rule:evenodd"
viewBox="0 0 8669.86 6502.4"
 xmlns:xlink="http://www.w3.org/1999/xlink"
 xmlns:xodm="http://www.corel.com/coreldraw/odm/2003">
 <defs>
  <style type="text/css">
   <![CDATA[
    .fil1 {fill:black}
    .fil0 {fill:#A4A6D4}
   ]]>
  </style>
 </defs>
 <g id="Camada_x0020_1">
  <metadata id="CorelCorpID_0Corel-Layer"/>
  <path class="fil0" d="M1638.46 -7612.29l1076.07 0c36.45,0 66.26,29.81 66.26,66.26l0 184.02c0,36.46 -29.81,66.27 -66.26,66.27l-1076.07 0c-36.45,0 -66.26,-29.81 -66.26,-66.27l0 -184.02c0,-36.45 29.81,-66.26 66.26,-66.26z"/>
  <path class="fil1" d="M2073.7 -7365.11l46.53 0 14.56 -69.92c0.77,-3.72 3.83,-20.8 4.93,-22.88l6.02 92.8 39.77 0c3.61,-7.69 7.45,-15.62 11.21,-23.34 3.71,-7.64 7.15,-15.66 11.02,-23.09 3.92,-7.51 7.35,-15.69 11.15,-23.28 0.75,-1.49 10.06,-21.91 11.28,-23 -0.81,6.66 -7.65,37.1 -9.58,46.42 -0.69,3.38 -9.46,44.03 -9.41,46.29l46.52 0 26.99 -129.87 -78.67 0.09c-1,1.41 -13.83,32.54 -14.87,35.01 -2.48,5.94 -4.85,11.53 -7.33,17.4l-6.94 16.46c-0.55,0.88 -0.19,0.37 -0.65,0.76l-1.2 -69.71c-9.65,-0.13 -19.53,-0.1 -29.18,0 -26.44,0.28 -44.27,4.43 -52.36,34.37 -3.27,12.14 -7.16,34.1 -10.11,47.71 -0.65,3.03 -9.83,45.61 -9.68,47.78zm-171.72 -205.28l-1.38 0c-1.14,0.68 -4.54,1.16 -3.78,5.96 0.89,5.67 5.15,17.15 7.19,22.25 5.83,14.56 16.22,30.21 26.39,41.81 1.56,1.78 3.1,3.63 4.87,5.16 1.75,1.52 2.99,3.19 4.75,4.94 3.54,3.55 12.38,10.64 16.05,13.37 13.07,9.76 33.44,20.9 52.78,25.45 33.7,7.94 39,-5.3 34.2,-36.88 -2.65,-17.36 -10.18,-34.12 -20.55,-47.64 -1.3,-1.7 -2.55,-4.36 -5.68,-4.25 -2.83,0.1 -4.77,2.32 -4.4,5.24 0.3,2.49 6.2,14.36 4.2,24.94 -4.34,23.01 -41.75,2.27 -53.04,-4.13 -4.24,-2.4 -8.05,-4.9 -11.87,-7.51 -3.91,-2.66 -16.31,-11.93 -19.15,-14.96 -0.93,-1 -1.6,-1.51 -2.65,-2.36 -1.69,-1.38 -3.29,-3.3 -4.86,-4.83 -6.66,-6.51 -12.74,-13.64 -18.01,-21.44 -1.94,-2.89 -1.94,-3.31 -5.06,-5.12zm446.37 205.28l10.38 0c4.61,-1.88 24.13,2.16 43.91,-17.69 2.24,-2.25 5.07,-5.9 7.01,-8.37 2.08,-2.64 4.28,-6.19 6.18,-9.2l12.16 -18.93c4.15,-6.12 7.94,-12.69 12.01,-18.74 3.43,-5.09 35.95,-55.55 36.06,-56.56l-53.58 -0.08 -14.9 23.55c-5.07,7.98 -10.02,15.57 -14.88,23.56 -8.7,14.3 -18.78,29.85 -27.94,44.28l-1.99 2.8c-1.73,-11.8 -3.19,-23.86 -4.72,-35.74 -1.48,-11.52 -2.77,-24.18 -4.96,-35.48 -2.42,-12.41 -6.65,-18.88 -18.87,-21.6 -10.55,-2.35 -27.29,-1.84 -38.68,-1.65 0.57,6.44 2.03,13.81 3,20.26 1.01,6.64 1.99,13.11 3.01,19.79 2,13.02 4.06,26.35 5.98,39.42 3.59,24.47 3.77,44.37 30.47,49.08 1.72,0.3 3.38,0.52 5.07,0.67 0.94,0.09 1.74,0.17 2.7,0.22l2.58 0.41zm-516.08 -96.29c-0.89,3.51 2.61,16.77 3.64,20.41 4.97,17.43 16.06,34.5 27.94,45.94 12.46,11.99 29.1,21.85 47.38,26.51 3.36,0.86 6.74,1.59 10.26,2.1 2.52,0.37 9.46,0.57 11.17,1.33l9.41 0 0.57 -0.18c0.08,-0.02 0.2,-0.06 0.3,-0.08l1.63 -0.16c33.28,-2.21 63.66,-20.01 82.34,-47.31 4.62,-6.75 12.11,-21.21 13.66,-30.93 -1.12,0.62 -1.89,1.46 -3.01,2.12 -3.71,2.18 -7.64,3.13 -12.09,3.66 -6.2,0.74 -13.56,0.39 -19.71,-0.32 -33.5,-3.87 -62.39,-18.36 -88.44,-36.28 -4.08,-2.81 -8.15,-5.89 -11.85,-8.88 -2.65,-2.15 -9.06,-7.35 -11.18,-9.54 -1.76,-1.83 -3.32,-2.88 -5.33,-5.03 -1.54,-1.64 -3.53,-3.66 -5.17,-5.2 -5.89,-5.54 -13.89,-15.44 -19.03,-22.43 -4.12,-5.62 -5.98,-11.01 -10.67,-9.18 -4.91,1.93 -1.45,10.79 -0.18,15.33 6.64,23.74 17.01,42.97 31.79,61.84 7.96,10.16 16.01,17.73 25.8,26.02 5.47,4.63 11.81,9 18.13,12.97 2.16,1.36 4.97,2.77 4.25,6.38 -1.34,6.68 -9.01,4.97 -14.71,3.44 -20.35,-5.47 -40.02,-14.25 -55.51,-27.77 -7.86,-6.86 -13.84,-13.1 -19.99,-21.47 -2.54,-3.46 -4.57,-7.99 -8.92,-6.48 -1.65,0.57 -2.11,1.41 -2.48,3.19z"/>
 </g>
</svg>
