<?xml version="1.0" encoding="UTF-8"?>
<!DOCTYPE svg PUBLIC "-//W3C//DTD SVG 1.1//EN" "http://www.w3.org/Graphics/SVG/1.1/DTD/svg11.dtd">
<!-- Creator: CorelDRAW 2021 (64 Bit) -->
<svg xmlns="http://www.w3.org/2000/svg" xml:space="preserve" width="86.6986mm" height="65.024mm" version="1.1" style="shape-rendering:geometricPrecision; text-rendering:geometricPrecision; image-rendering:optimizeQuality; fill-rule:evenodd; clip-rule:evenodd"
viewBox="0 0 8669.86 6502.4"
 xmlns:xlink="http://www.w3.org/1999/xlink"
 xmlns:xodm="http://www.corel.com/coreldraw/odm/2003">
 <defs>
  <style type="text/css">
   <![CDATA[
    .fil1 {fill:white}
    .fil0 {fill:#4A1B96;fill-opacity:0.909804}
   ]]>
  </style>
 </defs>
 <g id="Camada_x0020_1">
  <metadata id="CorelCorpID_0Corel-Layer"/>
  <path class="fil0" d="M20293.79 -378.18c510.06,0 923.56,413.5 923.56,923.56 0,510.07 -413.5,923.56 -923.56,923.56 -510.06,0 -923.56,-413.49 -923.56,-923.56 0,-510.06 413.5,-923.56 923.56,-923.56z"/>
  <path class="fil1" d="M20180.77 1094.74l1.91 -329.78c28.44,-8.96 193.81,-8.96 223.98,0l0.19 329.78c71.48,-1.42 143.95,-0.32 215.55,-0.32 207.33,0 164.84,26.01 165.25,-387.23 0.09,-90.71 13.58,-77.14 -72.09,-142.41 -53.12,-40.47 -393.89,-329.91 -423.05,-346.63l-447.5 368.76c-49.82,42.51 -45.24,17.12 -45.05,114.14l-0.02 331.83c4.86,80.23 85.39,61.54 159.14,61.54 73.63,0 148.18,-1.14 221.69,0.32zm-577.92 -553.66l0 20.03c11.1,12.87 22.29,25.53 33.24,38.95 49.84,61.14 45.61,51.87 123.27,-12.88 27.4,-22.84 51.86,-42.11 77.03,-64.24 27.47,-24.15 49.03,-39.69 73.77,-61.39l227.25 -190.23c25.33,-22.48 49.86,-40.65 76.85,-64.31 16.8,-14.74 63.13,-48.07 74.06,-64.86 27.95,10.59 56.2,40.95 78.46,59.22l381.29 318.64c14.94,13.41 137.42,125.34 162.99,120.32 22.65,-11.65 25.36,-20.93 37.77,-36.81 11.43,-14.62 24.35,-28.98 35.93,-42.41l0 -20.03c-17.55,-14.17 -32.91,-29.77 -48.48,-43.33l-148.51 -119.79c-0.53,-88.4 10.18,-303.06 -4.78,-372.92 -33.34,-12.94 -177.67,-12.97 -213.09,0.16l-3.48 183.61c-38.21,-30.75 -75.08,-59.78 -115.9,-95.74 -91.23,-80.37 -148.01,-143 -242.24,-58l-141.89 116.29c-40.46,33.76 -80.01,65.43 -117.08,97.82l-346.46 291.9z"/>
 </g>
</svg>
