<?xml version="1.0" encoding="UTF-8"?>
<!DOCTYPE svg PUBLIC "-//W3C//DTD SVG 1.1//EN" "http://www.w3.org/Graphics/SVG/1.1/DTD/svg11.dtd">
<!-- Creator: CorelDRAW 2021 (64 Bit) -->
<svg xmlns="http://www.w3.org/2000/svg" xml:space="preserve" width="86.6986mm" height="65.024mm" version="1.1" style="shape-rendering:geometricPrecision; text-rendering:geometricPrecision; image-rendering:optimizeQuality; fill-rule:evenodd; clip-rule:evenodd"
viewBox="0 0 8669.86 6502.4"
 xmlns:xlink="http://www.w3.org/1999/xlink"
 xmlns:xodm="http://www.corel.com/coreldraw/odm/2003">
 <defs>
  <style type="text/css">
   <![CDATA[
    .fil0 {fill:black}
    .fil1 {fill:white}
   ]]>
  </style>
 </defs>
 <g id="Camada_x0020_1">
  <metadata id="CorelCorpID_0Corel-Layer"/>
  <path class="fil0" d="M11341.2 817.53l-1005.34 0 -1005.35 0c0,-804.97 0,0 0,-804.97l1005.35 0 1005.34 0c329.48,131.09 306.67,705.83 0,804.97z"/>
  <path class="fil1" d="M9529.88 298.59c0,-10.75 -8.88,-19.62 -19.61,-19.62 -10.74,0 -19.62,8.87 -19.62,19.62 0,10.74 8.88,19.6 19.62,19.6 10.73,0 19.61,-8.86 19.61,-19.6zm-3.75 265.18l0 -210.56 -31.73 0 0 210.56 31.73 0zm217.57 0l0 -119.99c0,-61.16 -35.48,-94.77 -85.44,-94.77 -49.95,0 -85.43,33.61 -85.43,94.77l0 119.99 31.74 0 0 -127.47c0,-36.41 25.68,-55.55 53.69,-55.55 28.02,0 53.69,19.14 53.69,55.55l0 127.47 31.75 0zm46.7 -301.61l0 247.91c0,33.62 24.28,53.7 57.42,53.7l17.74 0 0 -32.69 -10.74 0c-20.54,0 -32.69,-10.26 -32.69,-33.61l0 -111.58 43.43 0 0 -32.68 -43.43 0 0 -91.05 -31.73 0zm184.41 91.05c-5.61,0 -12.61,0 -12.61,0 -37.81,0 -61.62,21.01 -61.62,65.35l0 145.21 31.74 0 0 -140.53c0,-28.48 11.67,-37.35 32.22,-37.35l10.27 0 0 -32.68zm217.11 210.56l0 -105.05c0,-60.22 -49.49,-109.71 -109.73,-109.71 -60.23,0 -109.7,49.49 -109.7,109.71 0,60.23 49.47,109.25 109.7,109.25 28.95,0 55.56,-11.2 75.17,-29.89l0 25.69 34.56 0zm-32.68 -105.05c0,42.49 -34.55,77.04 -77.05,77.04 -42.47,0 -77.02,-34.55 -77.02,-77.04 0,-42.48 34.55,-77.5 77.02,-77.5 42.5,0 77.05,35.02 77.05,77.5zm250.23 105.05l0 -119.99c0,-61.16 -35.48,-94.77 -85.44,-94.77 -49.95,0 -85.43,33.61 -85.43,94.77l0 119.99 31.74 0 0 -127.47c0,-36.41 25.68,-55.55 53.69,-55.55 28.02,0 53.69,19.14 53.69,55.55l0 127.47 31.75 0zm252.12 -72.84l-35.02 0c-12.61,26.62 -39.21,44.83 -70.03,44.83 -36.41,0 -67.23,-25.69 -75.16,-59.76l146.12 0c21.48,0 35.5,-12.61 35.5,-33.62 0,-45.76 -49.5,-93.37 -106.46,-93.37 -60.23,0 -109.71,49.49 -109.71,109.71 0,60.23 49.48,109.25 109.71,109.25 49.02,0 90.11,-32.21 105.05,-77.04zm-29.89 -48.55l-150.32 0c7.47,-34.54 38.28,-61.16 75.16,-61.16 36.89,0 67.23,26.14 75.16,61.16zm68.64 -180.22l0 247.91c0,33.62 24.28,53.7 57.42,53.7l17.74 0 0 -32.69 -10.74 0c-20.54,0 -32.68,-10.26 -32.68,-33.61l0 -111.58 43.42 0 0 -32.68 -43.42 0 0 -91.05 -31.74 0zm300.85 326.67c2.23,-1.19 5.76,-4.3 7.96,-5.94 13.25,-10.03 27.09,-20.1 41.68,-27.63 4.95,-2.53 15.23,-7.03 19.06,-10.02 -0.78,-6.95 -8.63,-39.64 -11.18,-57.5 -1.48,-10.28 -2.53,-20.71 -3.38,-31.26 -0.85,-10.35 -0.39,-23 -1.76,-32.78l-114.76 0c-2.08,38.5 18.15,99.62 38.39,131.66 6.63,10.53 16.28,26.66 23.99,33.47zm200.98 99.93l2.69 1 0.33 -156.89 -5.04 0.59c-20.9,-1.93 -95.5,13.14 -108.11,22.67 6.47,26.39 25.85,64.22 39.01,82.06 15.38,20.84 42.42,48.64 71.12,50.57zm23.43 -547.28c-2.02,-1.68 -0.04,-0.99 -3.38,-1 -1,8.46 -0.3,100.94 -0.3,117.61 0,8.47 -1.04,32.51 0.56,39.16 3.1,0.39 6.9,0.4 9.13,-0.77 21.45,2.43 73.44,-10.86 98.08,-19.81 2.98,-1.08 3.59,-1.24 5.58,-2.74 -9.61,-38.2 -37.94,-90.43 -68.1,-113.48 -9.89,-7.58 -24.82,-18.35 -41.57,-18.97zm-30.04 155c2.23,1.17 6.01,1.19 9.13,0.74 1.02,-4.43 1.29,-147.62 0.23,-156.7 -3.45,-0.07 -1.33,-0.62 -3.37,0.95 -27.67,0.73 -55.75,29.69 -70.86,50.07 -12.63,17.04 -33.61,56.87 -38.85,82.39 12.48,9.09 84.05,24.78 103.72,22.55zm158.78 144.69c1.57,-2.46 1.1,-3.43 1.26,-7.8 0.15,-3.54 0.38,-6.35 0.08,-9.9l-133.31 -0.14c-1.19,13.87 -0.22,31.8 -0.22,45.67l1.05 45.83c6.38,1.55 23.38,1.5 31.66,2.5 20.08,2.5 39.9,6.54 59.1,12.21 7.51,2.25 20.67,7.8 26.7,8.71 3.9,-20.1 17.2,-78.09 13.68,-97.08zm-150.42 73.59c2.68,-4.36 1.06,-88.62 0.86,-90.91 -6.11,-1.41 -120.17,-1.07 -133.29,-0.39 -0.33,3.83 -0.73,15.42 1.34,18.69 -3.45,18.5 9.68,76.53 13.74,96.05 4.78,-0.62 19.97,-6.62 25.78,-8.55 9.25,-3.09 18.94,-5.04 28.55,-7.1 9.95,-2.17 20.09,-3.79 30.5,-5.1 7.22,-0.9 27.92,-1.3 32.52,-2.69zm147.67 -247.47c13.4,-4.16 57.24,-32.67 62.28,-39.89 -9.94,-14.1 -42.35,-37.52 -58.19,-47.52 -17.73,-11.18 -50.87,-26.82 -74.99,-31.31 7.65,8.38 14.04,13.51 22.84,24.03 19.39,23.15 40.76,65.1 48.06,94.69zm-70.9 414.23c37.2,-6.96 77.8,-31 105.81,-52.95 7.71,-6.06 22.78,-19.13 27.35,-25.89 -5.06,-7.09 -49.05,-36.17 -62.26,-39.9 -8.27,32.98 -30.96,75.95 -53.33,101.32l-17.57 17.42zm-267.39 -454.12c5.1,7.2 48.8,35.83 62.27,39.89 7.62,-31.52 28.44,-70.15 48.02,-94.76 7.32,-9.19 15.28,-15.96 22.89,-23.96 -36.42,6.65 -78.26,31.09 -105.94,52.83 -7.44,5.82 -23.15,19.52 -27.24,26zm0 375.28c4.36,6.36 19.29,19.64 26.76,25.49 27.55,21.62 69.79,47.13 106.37,53.33 -7.87,-8.01 -15.4,-14.87 -22.96,-23.83 -18.76,-22.16 -40.81,-66.38 -47.9,-94.89 -7.53,2.1 -26.96,13.63 -33.16,17.75 -10.27,6.85 -21.16,14.27 -29.11,22.15zm209.12 86.55c13.65,-0.01 34.82,-11.71 42.59,-17.81 31.56,-24.73 61.46,-76.06 70.27,-115.29 -15.15,-11.17 -88.62,-24.38 -112.55,-23.03l-0.31 156.13zm0.3 -374l-0.3 90.11c5.47,1.29 121.9,1.21 133.1,0.33 -1.22,-52.55 -5.31,-65.25 -14.85,-113.85 -6,0.94 -18.62,6.32 -25.95,8.5 -19.57,5.83 -38.48,9.7 -58.97,12.3 -10.44,1.34 -23.15,0.99 -33.03,2.61zm-151.11 90.53c12.88,0.67 127.72,0.91 133.11,-0.45l-0.01 -90.06c-9.66,-1.6 -22.34,-1.25 -32.39,-2.48 -10.41,-1.29 -20.75,-2.97 -30.61,-5.05 -9.73,-2.05 -19.19,-4.49 -28.49,-7.18 -7.93,-2.28 -20.26,-7.68 -26.72,-8.74 -9.43,47.94 -13.86,61.9 -14.89,113.96zm-132.79 0.12l115.08 0.01c0.54,-30.33 3.47,-62.69 9.69,-92.29 1.81,-8.68 5.44,-20.69 6.28,-28.77 -4.33,-3.07 -13.78,-6.71 -18.66,-9.44 -12.12,-6.74 -22.83,-13.41 -33.87,-21.57 -4.33,-3.17 -12.06,-10.44 -16.15,-12.58 -14.09,13.12 -34.78,51.16 -42.42,70.48 -11.6,29.37 -18.8,59.01 -19.95,94.16zm418.48 -121.05c0.8,7.88 4.35,19.57 6.08,27.92 6.34,30.8 9.16,61.48 9.91,93.14l115.04 0c-1.98,-47.25 -15.08,-92.59 -38.45,-131.08 -6.4,-10.57 -16.28,-26.49 -23.89,-33.58 -1.5,0.8 -22.16,17.32 -32.03,23.46l-36.66 20.14zm-0.04 260.41l36 19.89c6.03,3.8 11.3,7.65 16.41,11.31 4.72,3.39 12.27,10.34 16.32,12.39 6.01,-5.31 18.76,-25.02 23.54,-32.89 6.74,-11.05 14.04,-25.22 19.1,-38.35 9.11,-23.53 21.05,-65.28 19.51,-93.89l-114.56 -0.02c-1.33,9.65 -0.89,21.93 -1.73,32.16 -1.77,21.42 -4.13,39.53 -8.33,60.58 -1.77,8.91 -5.29,20.22 -6.26,28.82z"/>
 </g>
</svg>
