<?xml version="1.0" encoding="UTF-8"?>
<!DOCTYPE svg PUBLIC "-//W3C//DTD SVG 1.1//EN" "http://www.w3.org/Graphics/SVG/1.1/DTD/svg11.dtd">
<!-- Creator: CorelDRAW 2021 (64 Bit) -->
<svg xmlns="http://www.w3.org/2000/svg" xml:space="preserve" width="86.6986mm" height="65.024mm" version="1.1" style="shape-rendering:geometricPrecision; text-rendering:geometricPrecision; image-rendering:optimizeQuality; fill-rule:evenodd; clip-rule:evenodd"
viewBox="0 0 8669.86 6502.4"
 xmlns:xlink="http://www.w3.org/1999/xlink"
 xmlns:xodm="http://www.corel.com/coreldraw/odm/2003">
 <defs>
  <style type="text/css">
   <![CDATA[
    .str1 {stroke:black;stroke-width:8.47;stroke-linecap:round;stroke-linejoin:round;stroke-miterlimit:22.9256}
    .str0 {stroke:black;stroke-width:7.62;stroke-linecap:round;stroke-linejoin:round;stroke-miterlimit:22.9256}
    .fil12 {fill:none}
    .fil8 {fill:#FEFEFE}
    .fil6 {fill:#FFCC29}
    .fil5 {fill:#00A859}
    .fil7 {fill:#0082C6}
    .fil3 {fill:black}
    .fil1 {fill:#00528E}
    .fil10 {fill:#00528E}
    .fil2 {fill:#DB251D}
    .fil4 {fill:black;fill-rule:nonzero}
    .fil11 {fill:#DB251D;fill-rule:nonzero}
    .fil9 {fill:red;fill-rule:nonzero}
    .fil0 {fill:#E0CE57}
   ]]>
  </style>
 </defs>
 <g id="Camada_x0020_1">
  <metadata id="CorelCorpID_0Corel-Layer"/>
  <path class="fil0" d="M15831.68 921.01l1093.3 0c57.33,0 104.23,46.9 104.23,104.23l0 719.62c0,57.33 -46.9,104.23 -104.23,104.23l-1093.3 0c-57.33,0 -104.23,-46.9 -104.23,-104.23l0 -719.62c0,-57.33 46.9,-104.23 104.23,-104.23z"/>
  <g id="_1230438787104">
   <path class="fil1 str0" d="M16525.38 1073.02l-61.7 0 -66.9 178.84 51.52 1.81c14.79,-34.73 0.58,-1.49 14.79,-34.73l61.58 0.39 9.73 33.44 57.6 0.58 -66.62 -180.33zm-51.39 113.42l40.07 0.08c-20.98,-63.77 0,0 -20.98,-63.77l-19.09 63.69z"/>
   <path class="fil1 str0" d="M16231.66 1253.47l151.67 0 0.43 -40.63 -96.5 0.01 0.57 -35.62 86.61 0 -0.26 -36.2 -85.84 -0.53 -0.79 -28.68 94.3 0 -0.62 -38.8 -149.38 0c0,70.38 -0.45,101.97 -0.19,180.45z"/>
   <path class="fil2 str0" d="M16083.05 1136.33c-8.23,44.49 0,0 -8.23,44.49l61.9 0 -11.82 71.21c55.46,0 0,0 55.46,0 13.29,-71.21 0,0 13.29,-71.21 60.69,-0.4 0,0 60.69,-0.4 2.53,-16.71 0,0 6.7,-44.13l-59.02 0.15 11.48 -63.42 -56.92 0 -11 63.5 -62.53 -0.19z"/>
   <polygon class="fil1 str0" points="16749.55,1118.18 16749.55,1073.02 16580.8,1073.02 16580.8,1118.18 16636.95,1118.18 16638.04,1252.38 16693.36,1253.5 16693.78,1118.18 "/>
   <path class="fil1 str0" d="M16094.75 1073.02l-55.95 0 -31.71 180.38 54.32 -0.09c33.34,-180.29 0,0 33.34,-180.29z"/>
  </g>
  <g id="_1230438789216">
   <g>
    <g>
     <path class="fil3 str0" d="M16112.39 1528.63l0 118.55c0,24.66 -12.94,46.46 -32.36,58.95 -26.31,16.91 -76.79,15.78 -101.71,-2.89 -17.09,-12.8 -28.2,-33.2 -28.2,-56.06l0 -118.55 51.89 0 0 121.88c0,34.76 58.49,34.76 58.49,0l0 -121.88 51.89 0z"/>
     <path class="fil3 str0" d="M16178.22 1714.68l-52.83 0 0 -185.33 52.83 0 0 0 41.1 0c27.43,0 49.89,22.45 49.89,49.9l0 15.09c0,27.45 -22.46,49.9 -49.89,49.9l-41.1 0 0 70.44zm0 -106.7l23.53 0c10.12,0 18.4,-8.28 18.4,-18.4l0 -5.57c0,-10.12 -8.28,-18.39 -18.4,-18.39l-23.53 0 0 42.36z"/>
     <polygon class="fil3 str0" points="16314.11,1674.01 16301.46,1716.36 16230.63,1716.36 16298.09,1528.09 16394.21,1528.09 16461.67,1716.36 16390.84,1716.36 16378.2,1674.01 "/>
     <path class="fil3 str0" d="M16285.31 1608.57c1.53,1.37 2.38,3.59 3.91,4.93 2.47,2.18 3.02,5.29 6.01,6.53 3.86,1.59 5.38,2.86 6.44,4.44 1.01,1.5 1.74,3.53 3.05,4.76 1.37,1.29 3.56,2.74 5.6,3.7 3.65,1.71 4.46,4.85 7.38,7.71 3.9,3.83 5.35,6.92 7.31,9.61 1.83,2.49 4.76,3.93 7.18,5.67 2.84,2.04 4.92,5.63 8.11,7.26 4.04,2.06 5.38,1.08 8.18,-1.63 4.28,-4.14 7.63,-8.45 15.5,-10.66 5.01,-1.41 12.07,-4.71 16.11,-8.03 3.35,-2.77 7.23,-5.68 10.16,-8.65 6.08,-6.16 11.13,-12.25 17.25,-18.1 3.32,-3.15 8.93,-5.52 4.18,-9.83 -2.59,-2.35 -3.65,-4.98 -6.49,-7.02 -5.05,-3.61 -5.4,-4.39 -6.05,-5.33 -2.1,-3.04 -7.13,-5.67 -9.74,-8.29 -5.55,-5.57 -12.39,-11.26 -18.83,-15.18 -9.07,-5.52 -12.26,-10.04 -14.77,-13.74 -1.51,-2.23 -4.4,-3.29 -6.58,-1.89 -1.08,0.69 -2.21,1.31 -3.23,2.08 -2.55,1.93 -5.42,2.82 -6.64,4.32 -1.56,1.93 -4.15,3.06 -6.21,4.43 -2.57,1.7 -5.1,3.43 -7.68,5.09 -2.83,1.82 -7.53,3.36 -10.51,4.8 -6.06,2.9 -9.95,5.88 -12.53,8.89 -2.52,2.94 -7.27,3.65 -9.27,6.98 -1.16,1.95 -6.61,4.54 -11.12,7.5 -4.46,2.93 -2.84,5.18 -0.48,6.94 1.24,0.92 2.72,1.78 3.76,2.71z"/>
     <path class="fil3 str0" d="M16347.05 1580.57c4.21,-0.33 8.76,-0.18 12.24,1.57 2.4,1.21 5.01,2.7 6.52,4.98 0.89,1.34 2.56,2.55 4.76,3.89 2.15,1.31 2.2,3.81 3.21,5.87 1.55,3.13 3.55,6.24 3.55,9.85 0,3.61 0.29,7.29 -2.08,9.85 -2.89,3.13 -4.63,6.28 -6.56,8.65 -2.3,2.82 -4.39,4.01 -8.26,4.46 -4.7,0.54 -9.51,2.26 -13.06,2.54 -7.93,0.63 -10.14,0.87 -12.24,-1.4 -2.82,-3.06 -7.39,-2.93 -9.73,-5.6 -1.01,-1.16 -1.88,-2.77 -4.43,-4.55 -1.2,-0.83 -1.5,-2.5 -2.13,-3.77 -1.06,-2.15 -2.62,-3.3 -2.98,-5.7 -0.16,-1.09 0.57,-3.35 0.57,-4.48 0,-1.58 -0.48,-3.62 -0.17,-5.12 0.4,-1.93 1.71,-3.3 2.58,-5.06 1.55,-3.13 2.66,-6.29 6.23,-7.01 1.23,-0.24 2.08,-1.3 4.7,-3.84 1.52,-1.49 3.42,-3.05 5.36,-3.07 6.17,-0.07 8.27,-1.77 11.92,-2.06z"/>
     <path class="fil3 str0" d="M16716.1 1710.81l-23.43 0 0 -34.66 0 -21.87 0 -116.21 23.43 0 0 69.31c11.67,-36.89 87.73,-40.46 90.43,21.42l0 82.01 -23.43 0 0 -76.88c0,-5.42 -0.49,-16.43 -6.46,-24.8 -13.27,-18.63 -40.67,-10.08 -50.61,3.82 -4.36,6.1 -9.93,15.81 -9.93,23.44l0 74.42z"/>
     <polygon class="fil3 str0" points="16637.31,1704.14 16658.93,1704.14 16658.93,1704.14 "/>
     <path class="fil3 str0" d="M16637.31 1704.14l21.62 0 0 -80.96 0 -85.93c-10.68,0 -21.36,0 -32.04,0l-70.28 117.41 0 21.49 52.67 0 0 -21.87 -28.77 0 56.8 -95.67 0 64.57 21.62 0 0 80.96 -21.62 0zm-154.75 -160.04l1.8 22.2c5.75,-3.04 11.18,-5.5 16.34,-7.33 12.88,-4.56 29.28,-7.11 41.62,-2.22 15.68,6.21 21.57,25.82 15.43,40.8 -9.43,22.98 -27.09,39.08 -44.75,55.83 -11.35,10.77 -23.53,21.59 -36.01,31.6l0 26.22 109.29 0 0 -20.47 -79.17 0c-1.87,0 -0.85,-2.96 0.31,-3.93 17.98,-15.09 34.58,-30.53 47.68,-45.99 11.92,-14.07 21.37,-26.17 26.47,-39.85 6.68,-17.9 3.2,-34.36 -5.92,-46.6 -22.34,-29.98 -63.53,-22.82 -93.09,-10.26zm154.75 160.04l0 -27.99 -28.03 0 0 -21.87 28.03 0 0 -31.1 21.62 0 0 80.96 -21.62 0z"/>
     <g>
      <path class="fil3 str0" d="M16369.5 1592.51c-1.91,-0.66 -3.81,-1.31 -5.72,-1.96 -0.38,-1.37 -0.76,-2.73 -1.14,-4.09 -0.87,0.87 -1.74,1.74 -2.61,2.61 -1.74,-0.05 -3.49,-0.1 -5.23,-0.16 0.36,1.64 1.61,3.27 3.27,4.91 -1.15,1.3 -1.15,2.61 -0.98,3.92 1.69,-0.65 2.99,-1.69 4.24,-2.78 0.66,2.07 1.96,3.71 3.92,4.9 0.11,-1.8 0.22,-3.59 0.33,-5.39 1.52,0.22 2.83,-0.44 3.92,-1.96z"/>
      <path class="fil3 str0" d="M16368.68 1617.2c-1.66,-1.25 -2.49,-1.39 -4.15,-1.76 -0.31,-1.1 -0.78,-1.55 -1.09,-2.66 -0.7,0.71 -1.41,1.41 -2.11,2.12 -1.42,-0.04 -2.83,-0.09 -4.24,-0.13 0.4,1.32 1.65,2.65 2.65,3.98 -0.72,1.06 -0.72,2.12 -0.8,3.18 1.37,-0.53 2.43,-1.37 3.44,-2.25 1.19,1.68 2.25,3 3.18,3.97 0.09,-1.46 0.18,-2.91 0.27,-4.37 0.78,-0.48 1.54,-1.5 2.85,-2.08z"/>
      <path class="fil3 str0" d="M16344.75 1603.54c0.63,0.99 1.05,1.88 1.25,2.66 0.81,0.04 1.76,0.11 3,0.37 -0.37,1.01 -1.4,1.45 -2.22,2.01 0.5,0.74 0.68,1.71 0.55,2.88 -0.89,-0.31 -1.38,-0.67 -2.58,-1.41 -0.33,0.6 -1.38,1.03 -2.57,1.41 0.08,-0.96 0.25,-1.92 0.55,-2.88 -1.04,-0.46 -1.75,-1.13 -2.14,-2.01 0.73,-0.13 1.54,-0.25 2.91,-0.37 0.1,-0.89 0.52,-1.77 1.25,-2.66z"/>
      <path class="fil3 str0" d="M16339.62 1609.88c0.53,0.84 0.88,1.58 1.05,2.24 0.68,0.03 1.47,0.09 2.52,0.31 -0.32,0.85 -1.18,1.22 -1.87,1.69 0.42,0.63 0.58,1.44 0.46,2.42 -0.75,-0.26 -1.16,-0.56 -2.16,-1.18 -0.28,0.5 -1.16,0.86 -2.17,1.18 0.07,-0.8 0.22,-1.61 0.46,-2.42 -0.87,-0.39 -1.46,-0.95 -1.8,-1.69 0.62,-0.11 1.3,-0.21 2.45,-0.31 0.09,-0.75 0.44,-1.49 1.06,-2.24z"/>
      <path class="fil3 str0" d="M16334.71 1605.09c0.61,0.97 1.02,1.83 1.22,2.59 0.79,0.04 1.71,0.11 2.92,0.36 -0.37,0.98 -1.36,1.42 -2.17,1.96 0.49,0.73 0.67,1.66 0.54,2.81 -0.87,-0.3 -1.34,-0.66 -2.51,-1.38 -0.33,0.58 -1.35,1 -2.51,1.38 0.08,-0.94 0.25,-1.88 0.54,-2.81 -1.01,-0.45 -1.71,-1.1 -2.09,-1.96 0.71,-0.12 1.5,-0.24 2.84,-0.36 0.09,-0.87 0.5,-1.73 1.22,-2.59z"/>
      <path class="fil3 str0" d="M16345.16 1614.02c0.61,0.97 1.02,1.83 1.22,2.59 0.78,0.04 1.7,0.11 2.91,0.36 -0.36,0.99 -1.36,1.42 -2.16,1.96 0.49,0.73 0.67,1.66 0.54,2.81 -0.87,-0.3 -1.35,-0.66 -2.51,-1.38 -0.33,0.58 -1.35,1.01 -2.51,1.38 0.08,-0.94 0.25,-1.87 0.53,-2.81 -1,-0.45 -1.7,-1.1 -2.08,-1.96 0.71,-0.12 1.5,-0.24 2.84,-0.36 0.09,-0.86 0.5,-1.73 1.22,-2.59z"/>
      <path class="fil3 str0" d="M16351.11 1608.63c0.55,0.87 0.92,1.65 1.1,2.34 0.71,0.03 1.54,0.09 2.63,0.32 -0.33,0.89 -1.23,1.28 -1.95,1.77 0.44,0.65 0.6,1.5 0.48,2.53 -0.78,-0.27 -1.21,-0.59 -2.26,-1.24 -0.3,0.52 -1.22,0.9 -2.27,1.24 0.08,-0.84 0.23,-1.69 0.49,-2.53 -0.91,-0.4 -1.54,-0.99 -1.88,-1.77 0.64,-0.11 1.35,-0.22 2.56,-0.32 0.08,-0.78 0.45,-1.56 1.1,-2.34z"/>
      <path class="fil3 str0" d="M16353.68 1616.11c0.55,0.87 0.92,1.65 1.1,2.34 0.71,0.03 1.54,0.09 2.63,0.32 -0.33,0.89 -1.23,1.28 -1.95,1.77 0.44,0.66 0.6,1.5 0.48,2.54 -0.78,-0.28 -1.21,-0.6 -2.26,-1.25 -0.3,0.53 -1.21,0.91 -2.26,1.25 0.07,-0.85 0.22,-1.7 0.48,-2.54 -0.91,-0.4 -1.54,-0.99 -1.88,-1.77 0.64,-0.11 1.35,-0.22 2.56,-0.32 0.08,-0.78 0.45,-1.56 1.1,-2.34z"/>
      <path class="fil3 str0" d="M16339.54 1622.07c0.55,0.87 0.92,1.65 1.09,2.33 0.72,0.04 1.55,0.1 2.64,0.33 -0.33,0.89 -1.23,1.27 -1.96,1.76 0.45,0.66 0.61,1.51 0.49,2.54 -0.78,-0.27 -1.21,-0.59 -2.26,-1.24 -0.3,0.52 -1.22,0.9 -2.27,1.24 0.08,-0.85 0.23,-1.69 0.49,-2.54 -0.91,-0.4 -1.54,-0.99 -1.89,-1.76 0.64,-0.11 1.36,-0.22 2.57,-0.33 0.08,-0.78 0.45,-1.56 1.1,-2.33z"/>
      <path class="fil3 str0" d="M16325.95 1613.13c0.56,0.88 0.92,1.66 1.1,2.34 0.72,0.04 1.54,0.1 2.64,0.32 -0.33,0.89 -1.23,1.28 -1.96,1.77 0.45,0.66 0.61,1.5 0.49,2.54 -0.79,-0.27 -1.21,-0.6 -2.27,-1.25 -0.29,0.53 -1.21,0.91 -2.26,1.25 0.08,-0.85 0.23,-1.69 0.49,-2.54 -0.91,-0.4 -1.54,-0.99 -1.89,-1.77 0.64,-0.1 1.36,-0.21 2.56,-0.32 0.09,-0.78 0.46,-1.56 1.1,-2.34z"/>
     </g>
     <path class="fil3 str0" d="M16377.22 1611.76c-0.21,1.8 -0.71,3.47 -1.97,4.82 -0.69,0.75 -1.32,1.5 -1.89,2.24 -1.15,-0.63 -1.02,-1.75 -2.11,-2.88 -0.72,-0.75 -2.91,-1.49 -3.72,-2.1 -1.68,-1.26 -4.04,-1.99 -4.77,-3.93 -0.36,-0.95 -2.4,-0.99 -4.45,-1.62 -1.61,-0.5 -3.15,-1.22 -4.4,-1.95 -1.88,-1.1 -4.34,-0.5 -5.89,-1.94 -1.21,-1.13 -2.95,-2.14 -5.06,-1.65 -3.06,0.72 -7.51,1.3 -9.62,0.83 -1.9,-0.42 -3.18,0.66 -4.9,1.85 -1.07,0.73 -2.35,3.32 -6.15,3.18 -1.92,-0.07 -4.15,-0.13 -6.22,0.45 0.17,-0.87 0.36,-1.75 0.36,-2.33 0,-1.2 -0.28,-2.67 -0.27,-3.97 2.24,-0.83 4.48,-1.52 6.71,-3.64 4.92,-4.68 12.58,-3.16 18.36,-5.27 2.46,-0.9 5.45,-0.5 8.31,0.87 2.07,0.99 3.68,2.01 5.9,2.82 2.93,1.06 6.15,2.01 8.96,4 4.34,3.05 8.69,6.37 12.82,10.22z"/>
     <polygon class="fil4 str0" points="16691.75,1654.08 16691.75,1676.34 16659.52,1676.34 16659.52,1709.82 16637.26,1709.82 16637.26,1676.34 16605.03,1676.34 16605.03,1654.08 16637.26,1654.08 16637.26,1620.61 16658.75,1620.61 16659.52,1620.61 16659.52,1654.08 "/>
    </g>
    <path class="fil3 str0" d="M16716.1 1710.81l-23.43 0 0 -34.66 0 -21.87 0 -116.21 23.43 0 0 69.31c11.67,-36.89 87.73,-40.46 90.43,21.42l0 82.01 -23.43 0 0 -76.88c0,-5.42 -0.49,-16.43 -6.46,-24.8 -13.27,-18.63 -40.67,-10.08 -50.61,3.82 -4.36,6.1 -9.93,15.81 -9.93,23.44l0 74.42z"/>
    <polygon class="fil3 str0" points="16637.31,1704.14 16658.93,1704.14 16658.93,1704.14 "/>
    <path class="fil3 str0" d="M16637.31 1704.14l21.62 0 0 -80.96 0 -85.93c-10.68,0 -21.36,0 -32.04,0l-70.28 117.41 0 21.49 52.67 0 0 -21.87 -28.77 0 56.8 -95.67 0 64.57 21.62 0 0 80.96 -21.62 0zm-154.75 -160.04l1.8 22.2c5.75,-3.04 11.18,-5.5 16.34,-7.33 12.88,-4.56 29.28,-7.11 41.62,-2.22 15.68,6.21 21.57,25.82 15.43,40.8 -9.43,22.98 -27.09,39.08 -44.75,55.83 -11.35,10.77 -23.53,21.59 -36.01,31.6l0 26.22 109.29 0 0 -20.47 -79.17 0c-1.87,0 -0.85,-2.96 0.31,-3.93 17.98,-15.09 34.58,-30.53 47.68,-45.99 11.92,-14.07 21.37,-26.17 26.47,-39.85 6.68,-17.9 3.2,-34.36 -5.92,-46.6 -22.34,-29.98 -63.53,-22.82 -93.09,-10.26zm154.75 160.04l0 -27.99 -28.03 0 0 -21.87 28.03 0 0 -31.1 21.62 0 0 80.96 -21.62 0z"/>
    <polygon class="fil4 str0" points="16691.75,1654.08 16691.75,1676.34 16659.52,1676.34 16659.52,1709.82 16637.26,1709.82 16637.26,1676.34 16605.03,1676.34 16605.03,1654.08 16637.26,1654.08 16637.26,1620.61 16658.75,1620.61 16659.52,1620.61 16659.52,1654.08 "/>
   </g>
   <g>
    <path class="fil5" d="M16112.39 1528.63l0 118.55c0,24.66 -12.94,46.46 -32.36,58.95 -26.31,16.91 -76.79,15.78 -101.71,-2.89 -17.09,-12.8 -28.2,-33.2 -28.2,-56.06l0 -118.55 51.89 0 0 121.88c0,34.76 58.49,34.76 58.49,0l0 -121.88 51.89 0z"/>
    <path class="fil5" d="M16178.22 1714.68l-52.83 0 0 -185.33 52.83 0 0 0 41.1 0c27.43,0 49.89,22.45 49.89,49.9l0 15.09c0,27.45 -22.46,49.9 -49.89,49.9l-41.1 0 0 70.44zm0 -106.7l23.53 0c10.12,0 18.4,-8.28 18.4,-18.4l0 -5.57c0,-10.12 -8.28,-18.39 -18.4,-18.39l-23.53 0 0 42.36z"/>
    <polygon class="fil5" points="16314.11,1674.01 16301.46,1716.36 16230.63,1716.36 16298.09,1528.09 16394.21,1528.09 16461.67,1716.36 16390.84,1716.36 16378.2,1674.01 "/>
    <path class="fil6" d="M16285.31 1608.57c1.53,1.37 2.38,3.59 3.91,4.93 2.47,2.18 3.02,5.29 6.01,6.53 3.86,1.59 5.38,2.86 6.44,4.44 1.01,1.5 1.74,3.53 3.05,4.76 1.37,1.29 3.56,2.74 5.6,3.7 3.65,1.71 4.46,4.85 7.38,7.71 3.9,3.83 5.35,6.92 7.31,9.61 1.83,2.49 4.76,3.93 7.18,5.67 2.84,2.04 4.92,5.63 8.11,7.26 4.04,2.06 5.38,1.08 8.18,-1.63 4.28,-4.14 7.63,-8.45 15.5,-10.66 5.01,-1.41 12.07,-4.71 16.11,-8.03 3.35,-2.77 7.23,-5.68 10.16,-8.65 6.08,-6.16 11.13,-12.25 17.25,-18.1 3.32,-3.15 8.93,-5.52 4.18,-9.83 -2.59,-2.35 -3.65,-4.98 -6.49,-7.02 -5.05,-3.61 -5.4,-4.39 -6.05,-5.33 -2.1,-3.04 -7.13,-5.67 -9.74,-8.29 -5.55,-5.57 -12.39,-11.26 -18.83,-15.18 -9.07,-5.52 -12.26,-10.04 -14.77,-13.74 -1.51,-2.23 -4.4,-3.29 -6.58,-1.89 -1.08,0.69 -2.21,1.31 -3.23,2.08 -2.55,1.93 -5.42,2.82 -6.64,4.32 -1.56,1.93 -4.15,3.06 -6.21,4.43 -2.57,1.7 -5.1,3.43 -7.68,5.09 -2.83,1.82 -7.53,3.36 -10.51,4.8 -6.06,2.9 -9.95,5.88 -12.53,8.89 -2.52,2.94 -7.27,3.65 -9.27,6.98 -1.16,1.95 -6.61,4.54 -11.12,7.5 -4.46,2.93 -2.84,5.18 -0.48,6.94 1.24,0.92 2.72,1.78 3.76,2.71z"/>
    <path class="fil7" d="M16347.05 1580.57c4.21,-0.33 8.76,-0.18 12.24,1.57 2.4,1.21 5.01,2.7 6.52,4.98 0.89,1.34 2.56,2.55 4.76,3.89 2.15,1.31 2.2,3.81 3.21,5.87 1.55,3.13 3.55,6.24 3.55,9.85 0,3.61 0.29,7.29 -2.08,9.85 -2.89,3.13 -4.63,6.28 -6.56,8.65 -2.3,2.82 -4.39,4.01 -8.26,4.46 -4.7,0.54 -9.51,2.26 -13.06,2.54 -7.93,0.63 -10.14,0.87 -12.24,-1.4 -2.82,-3.06 -7.39,-2.93 -9.73,-5.6 -1.01,-1.16 -1.88,-2.77 -4.43,-4.55 -1.2,-0.83 -1.5,-2.5 -2.13,-3.77 -1.06,-2.15 -2.62,-3.3 -2.98,-5.7 -0.16,-1.09 0.57,-3.35 0.57,-4.48 0,-1.58 -0.48,-3.62 -0.17,-5.12 0.4,-1.93 1.71,-3.3 2.58,-5.06 1.55,-3.13 2.66,-6.29 6.23,-7.01 1.23,-0.24 2.08,-1.3 4.7,-3.84 1.52,-1.49 3.42,-3.05 5.36,-3.07 6.17,-0.07 8.27,-1.77 11.92,-2.06z"/>
    <path class="fil7" d="M16716.1 1710.81l-23.43 0 0 -34.66 0 -21.87 0 -116.21 23.43 0 0 69.31c11.67,-36.89 87.73,-40.46 90.43,21.42l0 82.01 -23.43 0 0 -76.88c0,-5.42 -0.49,-16.43 -6.46,-24.8 -13.27,-18.63 -40.67,-10.08 -50.61,3.82 -4.36,6.1 -9.93,15.81 -9.93,23.44l0 74.42z"/>
    <polygon class="fil7" points="16637.31,1704.14 16658.93,1704.14 16658.93,1704.14 "/>
    <path class="fil7" d="M16637.31 1704.14l21.62 0 0 -80.96 0 -85.93c-10.68,0 -21.36,0 -32.04,0l-70.28 117.41 0 21.49 52.67 0 0 -21.87 -28.77 0 56.8 -95.67 0 64.57 21.62 0 0 80.96 -21.62 0zm-154.75 -160.04l1.8 22.2c5.75,-3.04 11.18,-5.5 16.34,-7.33 12.88,-4.56 29.28,-7.11 41.62,-2.22 15.68,6.21 21.57,25.82 15.43,40.8 -9.43,22.98 -27.09,39.08 -44.75,55.83 -11.35,10.77 -23.53,21.59 -36.01,31.6l0 26.22 109.29 0 0 -20.47 -79.17 0c-1.87,0 -0.85,-2.96 0.31,-3.93 17.98,-15.09 34.58,-30.53 47.68,-45.99 11.92,-14.07 21.37,-26.17 26.47,-39.85 6.68,-17.9 3.2,-34.36 -5.92,-46.6 -22.34,-29.98 -63.53,-22.82 -93.09,-10.26zm154.75 160.04l0 -27.99 -28.03 0 0 -21.87 28.03 0 0 -31.1 21.62 0 0 80.96 -21.62 0z"/>
    <g>
     <path class="fil8" d="M16369.5 1592.51c-1.91,-0.66 -3.81,-1.31 -5.72,-1.96 -0.38,-1.37 -0.76,-2.73 -1.14,-4.09 -0.87,0.87 -1.74,1.74 -2.61,2.61 -1.74,-0.05 -3.49,-0.1 -5.23,-0.16 0.36,1.64 1.61,3.27 3.27,4.91 -1.15,1.3 -1.15,2.61 -0.98,3.92 1.69,-0.65 2.99,-1.69 4.24,-2.78 0.66,2.07 1.96,3.71 3.92,4.9 0.11,-1.8 0.22,-3.59 0.33,-5.39 1.52,0.22 2.83,-0.44 3.92,-1.96z"/>
     <path class="fil8" d="M16368.68 1617.2c-1.66,-1.25 -2.49,-1.39 -4.15,-1.76 -0.31,-1.1 -0.78,-1.55 -1.09,-2.66 -0.7,0.71 -1.41,1.41 -2.11,2.12 -1.42,-0.04 -2.83,-0.09 -4.24,-0.13 0.4,1.32 1.65,2.65 2.65,3.98 -0.72,1.06 -0.72,2.12 -0.8,3.18 1.37,-0.53 2.43,-1.37 3.44,-2.25 1.19,1.68 2.25,3 3.18,3.97 0.09,-1.46 0.18,-2.91 0.27,-4.37 0.78,-0.48 1.54,-1.5 2.85,-2.08z"/>
     <path class="fil8" d="M16344.75 1603.54c0.63,0.99 1.05,1.88 1.25,2.66 0.81,0.04 1.76,0.11 3,0.37 -0.37,1.01 -1.4,1.45 -2.22,2.01 0.5,0.74 0.68,1.71 0.55,2.88 -0.89,-0.31 -1.38,-0.67 -2.58,-1.41 -0.33,0.6 -1.38,1.03 -2.57,1.41 0.08,-0.96 0.25,-1.92 0.55,-2.88 -1.04,-0.46 -1.75,-1.13 -2.14,-2.01 0.73,-0.13 1.54,-0.25 2.91,-0.37 0.1,-0.89 0.52,-1.77 1.25,-2.66z"/>
     <path class="fil8" d="M16339.62 1609.88c0.53,0.84 0.88,1.58 1.05,2.24 0.68,0.03 1.47,0.09 2.52,0.31 -0.32,0.85 -1.18,1.22 -1.87,1.69 0.42,0.63 0.58,1.44 0.46,2.42 -0.75,-0.26 -1.16,-0.56 -2.16,-1.18 -0.28,0.5 -1.16,0.86 -2.17,1.18 0.07,-0.8 0.22,-1.61 0.46,-2.42 -0.87,-0.39 -1.46,-0.95 -1.8,-1.69 0.62,-0.11 1.3,-0.21 2.45,-0.31 0.09,-0.75 0.44,-1.49 1.06,-2.24z"/>
     <path class="fil8" d="M16334.71 1605.09c0.61,0.97 1.02,1.83 1.22,2.59 0.79,0.04 1.71,0.11 2.92,0.36 -0.37,0.98 -1.36,1.42 -2.17,1.96 0.49,0.73 0.67,1.66 0.54,2.81 -0.87,-0.3 -1.34,-0.66 -2.51,-1.38 -0.33,0.58 -1.35,1 -2.51,1.38 0.08,-0.94 0.25,-1.88 0.54,-2.81 -1.01,-0.45 -1.71,-1.1 -2.09,-1.96 0.71,-0.12 1.5,-0.24 2.84,-0.36 0.09,-0.87 0.5,-1.73 1.22,-2.59z"/>
     <path class="fil8" d="M16345.16 1614.02c0.61,0.97 1.02,1.83 1.22,2.59 0.78,0.04 1.7,0.11 2.91,0.36 -0.36,0.99 -1.36,1.42 -2.16,1.96 0.49,0.73 0.67,1.66 0.54,2.81 -0.87,-0.3 -1.35,-0.66 -2.51,-1.38 -0.33,0.58 -1.35,1.01 -2.51,1.38 0.08,-0.94 0.25,-1.87 0.53,-2.81 -1,-0.45 -1.7,-1.1 -2.08,-1.96 0.71,-0.12 1.5,-0.24 2.84,-0.36 0.09,-0.86 0.5,-1.73 1.22,-2.59z"/>
     <path class="fil8" d="M16351.11 1608.63c0.55,0.87 0.92,1.65 1.1,2.34 0.71,0.03 1.54,0.09 2.63,0.32 -0.33,0.89 -1.23,1.28 -1.95,1.77 0.44,0.65 0.6,1.5 0.48,2.53 -0.78,-0.27 -1.21,-0.59 -2.26,-1.24 -0.3,0.52 -1.22,0.9 -2.27,1.24 0.08,-0.84 0.23,-1.69 0.49,-2.53 -0.91,-0.4 -1.54,-0.99 -1.88,-1.77 0.64,-0.11 1.35,-0.22 2.56,-0.32 0.08,-0.78 0.45,-1.56 1.1,-2.34z"/>
     <path class="fil8" d="M16353.68 1616.11c0.55,0.87 0.92,1.65 1.1,2.34 0.71,0.03 1.54,0.09 2.63,0.32 -0.33,0.89 -1.23,1.28 -1.95,1.77 0.44,0.66 0.6,1.5 0.48,2.54 -0.78,-0.28 -1.21,-0.6 -2.26,-1.25 -0.3,0.53 -1.21,0.91 -2.26,1.25 0.07,-0.85 0.22,-1.7 0.48,-2.54 -0.91,-0.4 -1.54,-0.99 -1.88,-1.77 0.64,-0.11 1.35,-0.22 2.56,-0.32 0.08,-0.78 0.45,-1.56 1.1,-2.34z"/>
     <path class="fil8" d="M16339.54 1622.07c0.55,0.87 0.92,1.65 1.09,2.33 0.72,0.04 1.55,0.1 2.64,0.33 -0.33,0.89 -1.23,1.27 -1.96,1.76 0.45,0.66 0.61,1.51 0.49,2.54 -0.78,-0.27 -1.21,-0.59 -2.26,-1.24 -0.3,0.52 -1.22,0.9 -2.27,1.24 0.08,-0.85 0.23,-1.69 0.49,-2.54 -0.91,-0.4 -1.54,-0.99 -1.89,-1.76 0.64,-0.11 1.36,-0.22 2.57,-0.33 0.08,-0.78 0.45,-1.56 1.1,-2.33z"/>
     <path class="fil8" d="M16325.95 1613.13c0.56,0.88 0.92,1.66 1.1,2.34 0.72,0.04 1.54,0.1 2.64,0.32 -0.33,0.89 -1.23,1.28 -1.96,1.77 0.45,0.66 0.61,1.5 0.49,2.54 -0.79,-0.27 -1.21,-0.6 -2.27,-1.25 -0.29,0.53 -1.21,0.91 -2.26,1.25 0.08,-0.85 0.23,-1.69 0.49,-2.54 -0.91,-0.4 -1.54,-0.99 -1.89,-1.77 0.64,-0.1 1.36,-0.21 2.56,-0.32 0.09,-0.78 0.46,-1.56 1.1,-2.34z"/>
    </g>
    <path class="fil8" d="M16377.22 1611.76c-0.21,1.8 -0.71,3.47 -1.97,4.82 -0.69,0.75 -1.32,1.5 -1.89,2.24 -1.15,-0.63 -1.02,-1.75 -2.11,-2.88 -0.72,-0.75 -2.91,-1.49 -3.72,-2.1 -1.68,-1.26 -4.04,-1.99 -4.77,-3.93 -0.36,-0.95 -2.4,-0.99 -4.45,-1.62 -1.61,-0.5 -3.15,-1.22 -4.4,-1.95 -1.88,-1.1 -4.34,-0.5 -5.89,-1.94 -1.21,-1.13 -2.95,-2.14 -5.06,-1.65 -3.06,0.72 -7.51,1.3 -9.62,0.83 -1.9,-0.42 -3.18,0.66 -4.9,1.85 -1.07,0.73 -2.35,3.32 -6.15,3.18 -1.92,-0.07 -4.15,-0.13 -6.22,0.45 0.17,-0.87 0.36,-1.75 0.36,-2.33 0,-1.2 -0.28,-2.67 -0.27,-3.97 2.24,-0.83 4.48,-1.52 6.71,-3.64 4.92,-4.68 12.58,-3.16 18.36,-5.27 2.46,-0.9 5.45,-0.5 8.31,0.87 2.07,0.99 3.68,2.01 5.9,2.82 2.93,1.06 6.15,2.01 8.96,4 4.34,3.05 8.69,6.37 12.82,10.22z"/>
    <polygon class="fil9" points="16691.75,1654.08 16691.75,1676.34 16659.52,1676.34 16659.52,1709.82 16637.26,1709.82 16637.26,1676.34 16605.03,1676.34 16605.03,1654.08 16637.26,1654.08 16637.26,1620.61 16658.75,1620.61 16659.52,1620.61 16659.52,1654.08 "/>
   </g>
   <path class="fil10" d="M16716.1 1710.81l-23.43 0 0 -34.66 0 -21.87 0 -116.21 23.43 0 0 69.31c11.67,-36.89 87.73,-40.46 90.43,21.42l0 82.01 -23.43 0 0 -76.88c0,-5.42 -0.49,-16.43 -6.46,-24.8 -13.27,-18.63 -40.67,-10.08 -50.61,3.82 -4.36,6.1 -9.93,15.81 -9.93,23.44l0 74.42z"/>
   <polygon class="fil7" points="16637.31,1704.14 16658.93,1704.14 16658.93,1704.14 "/>
   <path class="fil10" d="M16637.31 1704.14l21.62 0 0 -80.96 0 -85.93c-10.68,0 -21.36,0 -32.04,0l-70.28 117.41 0 21.49 52.67 0 0 -21.87 -28.77 0 56.8 -95.67 0 64.57 21.62 0 0 80.96 -21.62 0zm-154.75 -160.04l1.8 22.2c5.75,-3.04 11.18,-5.5 16.34,-7.33 12.88,-4.56 29.28,-7.11 41.62,-2.22 15.68,6.21 21.57,25.82 15.43,40.8 -9.43,22.98 -27.09,39.08 -44.75,55.83 -11.35,10.77 -23.53,21.59 -36.01,31.6l0 26.22 109.29 0 0 -20.47 -79.17 0c-1.87,0 -0.85,-2.96 0.31,-3.93 17.98,-15.09 34.58,-30.53 47.68,-45.99 11.92,-14.07 21.37,-26.17 26.47,-39.85 6.68,-17.9 3.2,-34.36 -5.92,-46.6 -22.34,-29.98 -63.53,-22.82 -93.09,-10.26zm154.75 160.04l0 -27.99 -28.03 0 0 -21.87 28.03 0 0 -31.1 21.62 0 0 80.96 -21.62 0z"/>
   <polygon class="fil11" points="16691.75,1654.08 16691.75,1676.34 16659.52,1676.34 16659.52,1709.82 16637.26,1709.82 16637.26,1676.34 16605.03,1676.34 16605.03,1654.08 16637.26,1654.08 16637.26,1620.61 16658.75,1620.61 16659.52,1620.61 16659.52,1654.08 "/>
  </g>
  <line class="fil12 str1" x1="15817.63" y1="1385.26" x2="16939.03" y2= "1385.26" />
 </g>
</svg>
